<svg xmlns="http://www.w3.org/2000/svg" xml:space="preserve" width="1500" height="275" data-id="lg_0RFmHNMfdCjxodw0Ed" data-version="1"><g data-padding="20"><g fill="#fff"><path d="M598.705 5.22C538.56 9.472 490.512 57.52 486.26 117.665c-.333 4.693 3.373 8.689 8.077 8.689H599.3a8.1 8.1 0 0 0 8.097-8.098V13.297c0-4.704-3.995-8.408-8.689-8.077ZM751.14 118.375C746.885 58.23 698.837 10.182 638.693 5.93c-4.694-.333-8.69 3.373-8.69 8.077V118.97a8.1 8.1 0 0 0 8.098 8.097h104.96c4.704 0 8.407-3.995 8.077-8.689Zm-13.585 26.11c-60.144 4.252-108.192 52.3-112.445 112.445-.332 4.693 3.373 8.689 8.078 8.689h104.961a8.1 8.1 0 0 0 8.098-8.098V152.562c0-4.705-3.996-8.408-8.69-8.077Zm-251.292 12.85c4.252 60.144 52.3 108.192 112.445 112.445 4.693.332 8.689-3.373 8.689-8.077V156.74a8.1 8.1 0 0 0-8.098-8.097H494.34c-4.704 0-8.408 3.995-8.077 8.689Z" vector-effect="non-scaling-stroke"/><path stroke="null" stroke-width=".964" d="M766.324 155.053v-50.65h22.19v6.753h-14.54v13.99h11.716v6.89h-11.716v16.196h16.813v6.821Zm49.687.685q-9.51 0-13.787-5.714-4.269-5.723-4.269-16.61v-29.012h7.718v29.146q0 8.065 2.409 11.543 2.418 3.478 7.93 3.478t7.89-3.41q2.37-3.412 2.37-11.61v-29.147h7.786v29.011q0 10.82-4.51 16.572t-13.537 5.753Zm28.183-.685v-50.65h7.785v43.761h14.54v6.89Zm53.05.685q-6.889 0-12.708-3.2-5.82-3.208-9.269-9.133t-3.45-13.778q0-7.93 3.45-13.817 3.45-5.897 9.269-9.067 5.82-3.16 12.708-3.16 6.9 0 12.719 3.16 5.82 3.17 9.269 9.067 3.44 5.887 3.44 13.817 0 7.852-3.44 13.778-3.45 5.925-9.27 9.134-5.819 3.199-12.718 3.199Zm0-6.957q4.76 0 8.682-2.235 3.93-2.245 6.243-6.552 2.303-4.307 2.303-10.3 0-6.06-2.303-10.367-2.312-4.307-6.205-6.514t-8.72-2.206q-4.817 0-8.748 2.206t-6.205 6.514-2.274 10.367q0 5.993 2.351 10.3 2.341 4.307 6.301 6.552 3.96 2.235 8.575 2.235Zm57.676 6.957q-7.506 0-13.431-3.44-5.926-3.45-9.27-9.481-3.343-6.022-3.343-13.537 0-7.304 3.373-13.162 3.381-5.858 9.374-9.163t13.509-3.304q4.066 0 7.332.722 3.276.723 5.347 1.648 2.062.934 2.824 1.618l-3.035 6.485q-4.269-3.45-12.613-3.45-5.511 0-9.577 2.41-4.066 2.418-6.195 6.551-2.14 4.134-2.14 9.23 0 5.791 2.313 10.339 2.303 4.548 6.407 7.062 4.095 2.515 9.27 2.515 3.237 0 6.195-.79 2.967-.8 5.03-2.515v-9.789h-10.407v-7.091h18.056v19.838q-2.476 3.103-7.476 5.203-4.991 2.1-11.543 2.1Zm27.566-.685v-50.65h22.19v6.753h-14.54v13.99h11.706v6.89h-11.706v16.196h16.813v6.821Zm-206.44 70.548v-43.887h-12.96v-6.755h33.694v6.755h-13.084V225.6Zm41.825-50.709h.752l24.395 50.71h-8.883l-4.345-9.925h-23.22l-4.346 9.924h-8.614Zm.347 14.674-3.035 6.89-5.511 12.265h17.083l-5.444-12.198-2.958-6.957Zm29.069 36.035V174.96h12.891q10.888 0 14.472 3.652t3.585 8.816q0 3.45-1.523 6.513-1.512 3.064-4.817 4.587 4.885 1.233 7.197 4.336t2.312 7.303q0 4.413-1.387 7.718-1.378 3.304-5.714 5.51-4.345 2.207-12.544 2.207Zm7.583-29.146h6.551q4.885 0 6.957-2.38 2.062-2.37 2.062-6.022 0-6.551-9.365-6.551h-6.205Zm0 22.671h7.93q6.262 0 8.44-2.514 2.167-2.515 2.167-6.379 0-3.651-2.485-5.646-2.477-2.004-7.506-2.004h-8.546Zm51.952-44.234h.76l24.397 50.71h-8.893l-4.336-9.925h-23.22l-4.346 9.924h-8.614Zm.347 14.674-3.026 6.89-5.52 12.265h17.092l-5.444-12.198-2.968-6.957Zm29.078 36.035V174.96h7.785v43.753h14.54v6.89Zm47.549-50.709h.752l24.395 50.71h-8.893l-4.335-9.925h-23.22l-4.346 9.924h-8.614Zm.337 14.674-3.025 6.89-5.511 12.265h17.083l-5.444-12.198-2.958-6.957Z" font-family="Alata" font-size="71.516"/><path d="M783.782 254.766q0 2.14-1.6 3.305t-4.49 1.166q-3.053 0-4.768-.963v-2.159q1.108.56 2.38.877 1.271.328 2.447.328 1.82 0 2.804-.588.982-.578.982-1.773 0-.896-.78-1.532t-3.035-1.513q-2.149-.79-3.045-1.387-.906-.597-1.349-1.358-.443-.752-.443-1.802 0-1.88 1.532-2.968 1.522-1.089 4.191-1.089 2.476 0 4.847 1.012l-.829 1.889q-2.312-.954-4.191-.954-1.648 0-2.496.52-.838.52-.838 1.436 0 .616.318 1.05.308.433 1.012.828.703.386 2.688 1.128 2.736 1.002 3.7 2.004.963 1.011.963 2.543m17.045-3.507q0 3.758-1.898 5.868-1.889 2.11-5.223 2.11-2.062 0-3.66-.963-1.6-.974-2.468-2.785-.867-1.802-.867-4.23 0-3.757 1.88-5.848 1.878-2.1 5.212-2.1 3.227 0 5.126 2.148 1.898 2.139 1.898 5.8m-11.707 0q0 2.949 1.176 4.49t3.459 1.542q2.293 0 3.478-1.542 1.185-1.532 1.185-4.49 0-2.929-1.185-4.451t-3.498-1.522q-2.293 0-3.45 1.503-1.165 1.503-1.165 4.47m22.71-7.67v1.812h-3.912v13.557h-2.332V245.4h-2.746v-1.05l2.746-.848v-.848q0-5.665 4.953-5.665 1.223 0 2.861.491l-.607 1.86q-1.339-.434-2.293-.434-1.32 0-1.946.877-.636.877-.636 2.813v.993Zm7.766 13.73q.616 0 1.194-.096.569-.086.906-.183v1.773q-.376.183-1.108.308-.742.116-1.33.116-4.46 0-4.46-4.692V245.4H812.6v-1.127l2.196-.964.983-3.276h1.35v3.556h4.46v1.811h-4.46v9.038q0 1.387.654 2.139.665.742 1.812.742m20.484 1.638h-2.765l-2.814-9.019q-.27-.828-1.002-3.757h-.106q-.559 2.457-.983 3.786l-2.9 8.99h-2.698l-4.19-15.368h2.437q1.493 5.79 2.264 8.816.78 3.035.896 4.085h.106q.154-.8.501-2.071.347-1.263.597-2.014l2.814-8.816h2.524l2.756 8.816q.78 2.418 1.06 4.056h.115q.058-.51.299-1.56t2.92-11.312h2.418Zm18.19 0h-1.724l-.462-2.187h-.106q-1.157 1.445-2.294 1.955-1.146.511-2.851.511-2.284 0-3.585-1.175t-1.3-3.353q0-4.654 7.447-4.876l2.612-.086v-.954q0-1.812-.78-2.67-.781-.866-2.487-.866-1.927 0-4.345 1.185l-.723-1.783q1.137-.616 2.496-.973 1.349-.347 2.707-.347 2.746 0 4.076 1.224 1.32 1.214 1.32 3.912Zm-6.975-1.638q2.168 0 3.41-1.195t1.244-3.334v-1.387l-2.332.096q-2.775.097-3.999.858-1.223.77-1.223 2.38 0 1.262.761 1.917.761.665 2.139.665m18.779-14.01q1.03 0 1.84.174l-.318 2.158q-.954-.212-1.686-.212-1.87 0-3.19 1.513-1.329 1.513-1.329 3.767v8.248h-2.322V243.59h1.917l.27 2.852h.116q.848-1.503 2.052-2.322 1.214-.81 2.65-.81m11.205 15.927q-3.41 0-5.376-2.071-1.966-2.082-1.966-5.762 0-3.72 1.821-5.906 1.831-2.188 4.914-2.188 2.89 0 4.577 1.899 1.676 1.898 1.676 5.01v1.474h-10.579q.068 2.707 1.368 4.104 1.291 1.407 3.652 1.407 2.476 0 4.904-1.04v2.08q-1.233.53-2.332.762-1.108.231-2.659.231m-.636-13.98q-1.85 0-2.948 1.204-1.098 1.214-1.291 3.343h8.026q0-2.206-.983-3.372-.973-1.175-2.804-1.175m20.041-1.667v15.368h-2.331V243.59Zm-2.524-4.163q0-.8.395-1.165.385-.376.973-.376.568 0 .973.376.405.385.405 1.165 0 .79-.405 1.176t-.973.385q-.588 0-.973-.385-.395-.385-.395-1.176m20.3 19.53h-2.33v-9.943q0-1.878-.858-2.803-.848-.925-2.679-.925-2.409 0-3.526 1.31-1.128 1.3-1.128 4.297v8.065h-2.322V243.59h1.889l.385 2.1h.106q.713-1.127 2.004-1.753t2.881-.627q2.775 0 4.172 1.34 1.407 1.339 1.407 4.287Zm12.035-15.367h5.319v1.474l-2.843.337q.386.492.694 1.282t.308 1.792q0 2.254-1.541 3.594-1.542 1.349-4.23 1.349-.684 0-1.291-.106-1.484.78-1.484 1.975 0 .626.52.925.51.308 1.773.308h2.727q2.495 0 3.835 1.05t1.339 3.055q0 2.553-2.052 3.892-2.043 1.34-5.974 1.34-3.016 0-4.644-1.128-1.638-1.118-1.638-3.17 0-1.397.905-2.418.897-1.022 2.515-1.388-.588-.27-.983-.828-.404-.56-.404-1.301 0-.848.453-1.474.452-.636 1.416-1.224-1.195-.491-1.946-1.667-.742-1.175-.742-2.688 0-2.524 1.513-3.892t4.287-1.369q1.204 0 2.168.28m-6.937 17.95q0 1.243 1.05 1.888t3.016.646q2.929 0 4.336-.877 1.416-.877 1.416-2.38 0-1.243-.77-1.724-.772-.492-2.91-.492h-2.785q-1.58 0-2.467.761t-.886 2.178m1.262-13.027q0 1.61.915 2.438.906.829 2.534.829 3.411 0 3.411-3.305 0-3.469-3.45-3.469-1.647 0-2.524.887-.886.876-.886 2.62m20.638 10.724q-3.41 0-5.376-2.071-1.975-2.082-1.975-5.762 0-3.72 1.83-5.906t4.914-2.188q2.89 0 4.577 1.899 1.676 1.898 1.676 5.01v1.474h-10.579q.068 2.707 1.368 4.104 1.291 1.407 3.652 1.407 2.476 0 4.904-1.04v2.08q-1.233.53-2.332.762-1.108.231-2.659.231m-.636-13.98q-1.85 0-2.948 1.204-1.098 1.214-1.291 3.343h8.026q0-2.206-.983-3.372-.973-1.175-2.804-1.175m16.746 13.98q-3.41 0-5.376-2.071-1.976-2.082-1.976-5.762 0-3.72 1.831-5.906t4.914-2.188q2.89 0 4.567 1.899 1.686 1.898 1.686 5.01v1.474h-10.58q.068 2.707 1.36 4.104 1.3 1.407 3.651 1.407 2.486 0 4.914-1.04v2.08q-1.233.53-2.341.762-1.099.231-2.65.231m-.636-13.98q-1.85 0-2.948 1.204-1.099 1.214-1.301 3.343h8.036q0-2.206-.983-3.372-.983-1.175-2.804-1.175m23.095 13.7h-2.331v-9.943q0-1.878-.858-2.803-.848-.925-2.678-.925-2.41 0-3.527 1.31-1.127 1.3-1.127 4.297v8.065h-2.322V243.59h1.888l.386 2.1h.106q.713-1.127 2.004-1.753t2.87-.627q2.785 0 4.183 1.34 1.406 1.339 1.406 4.287Zm11.264.28q-3.402 0-5.377-2.071-1.965-2.082-1.965-5.762 0-3.72 1.83-5.906t4.914-2.188q2.89 0 4.567 1.899 1.686 1.898 1.686 5.01v1.474h-10.589q.078 2.707 1.369 4.104 1.3 1.407 3.651 1.407 2.486 0 4.905-1.04v2.08q-1.234.53-2.332.762t-2.66.231m-.626-13.98q-1.85 0-2.948 1.204-1.108 1.214-1.3 3.343h8.035q0-2.206-.983-3.372-.983-1.175-2.804-1.175m17.257-1.947q1.021 0 1.84.174l-.328 2.158q-.953-.212-1.676-.212-1.87 0-3.19 1.513-1.329 1.513-1.329 3.767v8.248h-2.322V243.59h1.917l.26 2.852h.116q.858-1.503 2.062-2.322 1.204-.81 2.65-.81" font-family="Open Sans" font-size="29.798"/></g><path fill="transparent" stroke="transparent" d="M476 0h548v275H476z"/></g></svg>